# xmcd CD database file
#
# Track frame offsets:
#	150
#	13423
#	26697
#	41300
#	55810
#	69638
#	85045
#	100131
#	115551
#	130350
#	145042
#	158654
#	172937
#	187601
#	202896
#	217630
#	230637
#	243593
#	254706
#	269781
#	281921
#	295089
#	308060
#	320101
#	333694
#
# Disc length: 4638 seconds
#
# Revision: 0
# Processed by: cddbd v1.5.1PL0 Copyright (c) Steve Scherf et al.
# Submitted via: CDex 1.50beta9
#
DISCID=6d121c19
DTITLE=Lionel Hampton - Drum Stomp - CD1
DYEAR=1900
DGENRE=Jazz
TTITLE0=China Stomp (Chinatown)
TTITLE1=I Know That You Know
TTITLE2=On The Sunny Side Of The Street
TTITLE3=Drum Stomp (Crazy Rhythm)
TTITLE4=After You've Gone
TTITLE5=Ring Dem Bells
TTITLE6=Muskrat Ramble
TTITLE7=Shoe Shiner's Drag
TTITLE8=High Society
TTITLE9=It Don't Mean A Thing (If It Ain't Got That Swing)
TTITLE10=Sweethearts On Parade
TTITLE11=Twelfth Street Rag
TTITLE12=Memories Of You
TTITLE13=One Sweet Letter From You
TTITLE14=Flying Home
TTITLE15=I've Found A New Baby
TTITLE16=Four Of Five Times
TTITLE17=Soft Winds
TTITLE18=The Sheik Of Araby
TTITLE19=Dinah
TTITLE20=Singin' The Blues (Till My Daddy Comes Home)
TTITLE21=House Of Morgan
TTITLE22=Jivin' With Jarvis
TTITLE23=Blue Because Of You
TTITLE24=Doug-Rey-Mi
EXTD=
EXTT0=
EXTT1=
EXTT2=
EXTT3=
EXTT4=
EXTT5=
EXTT6=
EXTT7=
EXTT8=
EXTT9=
EXTT10=
EXTT11=
EXTT12=
EXTT13=
EXTT14=
EXTT15=
EXTT16=
EXTT17=
EXTT18=
EXTT19=
EXTT20=
EXTT21=
EXTT22=
EXTT23=
EXTT24=
PLAYORDER=
